<svg width="158" height="67" viewBox="0 0 158 67" fill="none" xmlns="http://www.w3.org/2000/svg">
<g filter="url(#filter0_d_174_11)">
<mask id="path-1-inside-1_174_11" fill="white">
<path d="M4 15C4 6.71573 10.7157 0 19 0H48C56.2843 0 63 6.71573 63 15V44C63 52.2843 56.2843 59 48 59H19C10.7157 59 4 52.2843 4 44V15Z"/>
</mask>
<path d="M4 15C4 6.71573 10.7157 0 19 0H48C56.2843 0 63 6.71573 63 15V44C63 52.2843 56.2843 59 48 59H19C10.7157 59 4 52.2843 4 44V15Z" fill="url(#paint0_radial_174_11)" shape-rendering="crispEdges"/>
<path d="M4 0H63H4ZM63 44C63 53.3888 55.3888 61 46 61H21C11.6112 61 4 53.3888 4 44C4 51.1797 10.7157 57 19 57H48C56.2843 57 63 51.1797 63 44ZM4 59V0V59ZM63 0V59V0Z" fill="#182A39" fill-opacity="0.5" mask="url(#path-1-inside-1_174_11)"/>
</g>
<g clip-path="url(#clip0_174_11)">
<rect x="17.2874" y="13" width="33" height="33" rx="16.4179" fill="url(#paint1_radial_174_11)"/>
<g filter="url(#filter1_f_174_11)">
<circle cx="24.7575" cy="39.6791" r="7.47015" fill="#6BB1AD"/>
</g>
<g filter="url(#filter2_f_174_11)">
<circle cx="42.8172" cy="18.9926" r="7.47015" fill="#51F9EF"/>
</g>
<g filter="url(#filter3_f_174_11)">
<circle cx="45.1157" cy="38.5297" r="7.47015" fill="#020F0E"/>
</g>
<g filter="url(#filter4_f_174_11)">
<circle cx="27.2202" cy="18.0073" r="7.47015" fill="#0176FF"/>
</g>
</g>
<path d="M77.302 37H73.9748L78.6254 30.1565L74.126 23.3255H77.5415L80.478 28.0643H80.6545L83.5532 23.3255H86.9057L82.5198 30.1061L87.0569 37H83.6288L80.5789 32.2738H80.4024L77.302 37ZM95.2994 18.1834V31.5554C95.2994 35.3196 93.4215 37.2017 89.6658 37.2017C88.5987 37.2017 87.8173 37.1344 87.3216 37V34.1643C87.7669 34.2651 88.3592 34.3155 89.0986 34.3155C90.9723 34.3155 91.9091 33.2821 91.9091 31.2151V18.1834H95.2994ZM98.2737 33.2569C98.2737 31.8621 98.7653 30.774 99.7483 29.9926C100.731 29.2112 102.063 28.8205 103.744 28.8205H107.096V27.9131C107.096 26.3503 106.252 25.5689 104.563 25.5689C103.79 25.5689 103.172 25.7496 102.71 26.1108C102.248 26.4637 101.996 26.9427 101.954 27.5476H98.8409C98.9501 26.1781 99.5382 25.09 100.605 24.2834C101.672 23.4684 103.038 23.0609 104.701 23.0609C106.499 23.0609 107.877 23.502 108.835 24.3842C109.793 25.258 110.272 26.4847 110.272 28.0643V33.7736C110.272 34.4121 110.52 34.7314 111.016 34.7314C111.158 34.7314 111.314 34.7146 111.482 34.681V36.9748C110.852 37.1092 110.318 37.1764 109.881 37.1764C108.192 37.1764 107.323 36.4034 107.272 34.8575H107.096C106.827 35.5884 106.298 36.1724 105.508 36.6093C104.718 37.0378 103.802 37.2521 102.76 37.2521C101.408 37.2521 100.32 36.8866 99.4962 36.1556C98.6812 35.4246 98.2737 34.4584 98.2737 33.2569ZM101.5 32.8662C101.5 33.4711 101.698 33.9374 102.092 34.2651C102.496 34.5928 103.055 34.7566 103.769 34.7566C104.785 34.7566 105.592 34.4542 106.189 33.8492C106.793 33.2443 107.096 32.446 107.096 31.4546V30.8622H104.185C103.311 30.8622 102.643 31.0387 102.181 31.3916C101.727 31.7445 101.5 32.236 101.5 32.8662ZM113.221 32.7653H116.347C116.347 33.4375 116.59 33.9626 117.078 34.3407C117.565 34.7188 118.241 34.9079 119.107 34.9079C119.88 34.9079 120.476 34.7566 120.896 34.4542C121.317 34.1433 121.527 33.7106 121.527 33.156C121.527 32.3158 121.001 31.8075 119.951 31.631L117.292 31.1395C114.729 30.6942 113.448 29.4297 113.448 27.346C113.448 26.01 113.939 24.964 114.923 24.2078C115.914 23.4432 117.246 23.0609 118.918 23.0609C120.607 23.0609 121.938 23.4474 122.913 24.2204C123.896 24.985 124.409 26.0184 124.451 27.3208H121.325C121.275 26.0268 120.464 25.3799 118.893 25.3799C118.187 25.3799 117.636 25.5269 117.242 25.821C116.847 26.1066 116.649 26.51 116.649 27.0309C116.649 27.4006 116.771 27.7199 117.015 27.9887C117.174 28.14 117.347 28.2618 117.531 28.3542C117.725 28.4382 117.872 28.4887 117.973 28.5055C118.073 28.5223 118.288 28.5559 118.615 28.6063L121.111 29.0474C123.589 29.4591 124.829 30.7572 124.829 32.9418C124.829 34.2693 124.308 35.3196 123.266 36.0926C122.224 36.8656 120.829 37.2521 119.082 37.2521C117.258 37.2521 115.826 36.8446 114.784 36.0296C113.742 35.2145 113.221 34.1265 113.221 32.7653ZM126.858 30.1817C126.858 28.0727 127.475 26.3629 128.71 25.0522C129.962 23.7246 131.588 23.0609 133.588 23.0609C135.596 23.0609 137.213 23.7246 138.44 25.0522C139.684 26.3713 140.305 28.0811 140.305 30.1817C140.305 32.2738 139.684 33.9794 138.44 35.2986C137.239 36.6009 135.621 37.2521 133.588 37.2521C131.563 37.2521 129.937 36.6009 128.71 35.2986C127.475 33.9878 126.858 32.2822 126.858 30.1817ZM137.029 30.1313C137.029 28.7953 136.718 27.7367 136.096 26.9553C135.483 26.1655 134.638 25.7706 133.563 25.7706C132.496 25.7706 131.655 26.1655 131.042 26.9553C130.42 27.7535 130.109 28.8205 130.109 30.1565C130.109 31.4924 130.408 32.5595 131.004 33.3577C131.618 34.1475 132.47 34.5424 133.563 34.5424C134.638 34.5424 135.483 34.1475 136.096 33.3577C136.718 32.5679 137.029 31.4924 137.029 30.1313ZM146.304 37H143.116V23.3255H145.926L146.304 25.8462H146.519C146.947 24.9556 147.556 24.2708 148.346 23.7919C149.136 23.3045 150.039 23.0609 151.056 23.0609C152.577 23.0609 153.745 23.565 154.56 24.5733C155.375 25.5731 155.782 26.9553 155.782 28.7197V37H152.556V29.0474C152.556 26.8628 151.619 25.7706 149.745 25.7706C148.703 25.7706 147.867 26.1445 147.237 26.8922C146.615 27.6316 146.304 28.6021 146.304 29.8036V37Z" fill="white"/>
<path d="M77.302 37H73.9748L78.6254 30.1565L74.126 23.3255H77.5415L80.478 28.0643H80.6545L83.5532 23.3255H86.9057L82.5198 30.1061L87.0569 37H83.6288L80.5789 32.2738H80.4024L77.302 37ZM95.2994 18.1834V31.5554C95.2994 35.3196 93.4215 37.2017 89.6658 37.2017C88.5987 37.2017 87.8173 37.1344 87.3216 37V34.1643C87.7669 34.2651 88.3592 34.3155 89.0986 34.3155C90.9723 34.3155 91.9091 33.2821 91.9091 31.2151V18.1834H95.2994ZM98.2737 33.2569C98.2737 31.8621 98.7653 30.774 99.7483 29.9926C100.731 29.2112 102.063 28.8205 103.744 28.8205H107.096V27.9131C107.096 26.3503 106.252 25.5689 104.563 25.5689C103.79 25.5689 103.172 25.7496 102.71 26.1108C102.248 26.4637 101.996 26.9427 101.954 27.5476H98.8409C98.9501 26.1781 99.5382 25.09 100.605 24.2834C101.672 23.4684 103.038 23.0609 104.701 23.0609C106.499 23.0609 107.877 23.502 108.835 24.3842C109.793 25.258 110.272 26.4847 110.272 28.0643V33.7736C110.272 34.4121 110.52 34.7314 111.016 34.7314C111.158 34.7314 111.314 34.7146 111.482 34.681V36.9748C110.852 37.1092 110.318 37.1764 109.881 37.1764C108.192 37.1764 107.323 36.4034 107.272 34.8575H107.096C106.827 35.5884 106.298 36.1724 105.508 36.6093C104.718 37.0378 103.802 37.2521 102.76 37.2521C101.408 37.2521 100.32 36.8866 99.4962 36.1556C98.6812 35.4246 98.2737 34.4584 98.2737 33.2569ZM101.5 32.8662C101.5 33.4711 101.698 33.9374 102.092 34.2651C102.496 34.5928 103.055 34.7566 103.769 34.7566C104.785 34.7566 105.592 34.4542 106.189 33.8492C106.793 33.2443 107.096 32.446 107.096 31.4546V30.8622H104.185C103.311 30.8622 102.643 31.0387 102.181 31.3916C101.727 31.7445 101.5 32.236 101.5 32.8662ZM113.221 32.7653H116.347C116.347 33.4375 116.59 33.9626 117.078 34.3407C117.565 34.7188 118.241 34.9079 119.107 34.9079C119.88 34.9079 120.476 34.7566 120.896 34.4542C121.317 34.1433 121.527 33.7106 121.527 33.156C121.527 32.3158 121.001 31.8075 119.951 31.631L117.292 31.1395C114.729 30.6942 113.448 29.4297 113.448 27.346C113.448 26.01 113.939 24.964 114.923 24.2078C115.914 23.4432 117.246 23.0609 118.918 23.0609C120.607 23.0609 121.938 23.4474 122.913 24.2204C123.896 24.985 124.409 26.0184 124.451 27.3208H121.325C121.275 26.0268 120.464 25.3799 118.893 25.3799C118.187 25.3799 117.636 25.5269 117.242 25.821C116.847 26.1066 116.649 26.51 116.649 27.0309C116.649 27.4006 116.771 27.7199 117.015 27.9887C117.174 28.14 117.347 28.2618 117.531 28.3542C117.725 28.4382 117.872 28.4887 117.973 28.5055C118.073 28.5223 118.288 28.5559 118.615 28.6063L121.111 29.0474C123.589 29.4591 124.829 30.7572 124.829 32.9418C124.829 34.2693 124.308 35.3196 123.266 36.0926C122.224 36.8656 120.829 37.2521 119.082 37.2521C117.258 37.2521 115.826 36.8446 114.784 36.0296C113.742 35.2145 113.221 34.1265 113.221 32.7653ZM126.858 30.1817C126.858 28.0727 127.475 26.3629 128.71 25.0522C129.962 23.7246 131.588 23.0609 133.588 23.0609C135.596 23.0609 137.213 23.7246 138.44 25.0522C139.684 26.3713 140.305 28.0811 140.305 30.1817C140.305 32.2738 139.684 33.9794 138.44 35.2986C137.239 36.6009 135.621 37.2521 133.588 37.2521C131.563 37.2521 129.937 36.6009 128.71 35.2986C127.475 33.9878 126.858 32.2822 126.858 30.1817ZM137.029 30.1313C137.029 28.7953 136.718 27.7367 136.096 26.9553C135.483 26.1655 134.638 25.7706 133.563 25.7706C132.496 25.7706 131.655 26.1655 131.042 26.9553C130.42 27.7535 130.109 28.8205 130.109 30.1565C130.109 31.4924 130.408 32.5595 131.004 33.3577C131.618 34.1475 132.47 34.5424 133.563 34.5424C134.638 34.5424 135.483 34.1475 136.096 33.3577C136.718 32.5679 137.029 31.4924 137.029 30.1313ZM146.304 37H143.116V23.3255H145.926L146.304 25.8462H146.519C146.947 24.9556 147.556 24.2708 148.346 23.7919C149.136 23.3045 150.039 23.0609 151.056 23.0609C152.577 23.0609 153.745 23.565 154.56 24.5733C155.375 25.5731 155.782 26.9553 155.782 28.7197V37H152.556V29.0474C152.556 26.8628 151.619 25.7706 149.745 25.7706C148.703 25.7706 147.867 26.1445 147.237 26.8922C146.615 27.6316 146.304 28.6021 146.304 29.8036V37Z" fill="#F9F9F9"/>
<defs>
<filter id="filter0_d_174_11" x="0" y="0" width="67" height="67" filterUnits="userSpaceOnUse" color-interpolation-filters="sRGB">
<feFlood flood-opacity="0" result="BackgroundImageFix"/>
<feColorMatrix in="SourceAlpha" type="matrix" values="0 0 0 0 0 0 0 0 0 0 0 0 0 0 0 0 0 0 127 0" result="hardAlpha"/>
<feOffset dy="4"/>
<feGaussianBlur stdDeviation="2"/>
<feComposite in2="hardAlpha" operator="out"/>
<feColorMatrix type="matrix" values="0 0 0 0 0 0 0 0 0 0 0 0 0 0 0 0 0 0 0.25 0"/>
<feBlend mode="normal" in2="BackgroundImageFix" result="effect1_dropShadow_174_11"/>
<feBlend mode="normal" in="SourceGraphic" in2="effect1_dropShadow_174_11" result="shape"/>
</filter>
<filter id="filter1_f_174_11" x="1.52616" y="16.4478" width="46.4627" height="46.4628" filterUnits="userSpaceOnUse" color-interpolation-filters="sRGB">
<feFlood flood-opacity="0" result="BackgroundImageFix"/>
<feBlend mode="normal" in="SourceGraphic" in2="BackgroundImageFix" result="shape"/>
<feGaussianBlur stdDeviation="7.8806" result="effect1_foregroundBlur_174_11"/>
</filter>
<filter id="filter2_f_174_11" x="19.5858" y="-4.23873" width="46.4627" height="46.4628" filterUnits="userSpaceOnUse" color-interpolation-filters="sRGB">
<feFlood flood-opacity="0" result="BackgroundImageFix"/>
<feBlend mode="normal" in="SourceGraphic" in2="BackgroundImageFix" result="shape"/>
<feGaussianBlur stdDeviation="7.8806" result="effect1_foregroundBlur_174_11"/>
</filter>
<filter id="filter3_f_174_11" x="21.8844" y="15.2984" width="46.4627" height="46.4628" filterUnits="userSpaceOnUse" color-interpolation-filters="sRGB">
<feFlood flood-opacity="0" result="BackgroundImageFix"/>
<feBlend mode="normal" in="SourceGraphic" in2="BackgroundImageFix" result="shape"/>
<feGaussianBlur stdDeviation="7.8806" result="effect1_foregroundBlur_174_11"/>
</filter>
<filter id="filter4_f_174_11" x="3.98885" y="-5.22408" width="46.4627" height="46.4628" filterUnits="userSpaceOnUse" color-interpolation-filters="sRGB">
<feFlood flood-opacity="0" result="BackgroundImageFix"/>
<feBlend mode="normal" in="SourceGraphic" in2="BackgroundImageFix" result="shape"/>
<feGaussianBlur stdDeviation="7.8806" result="effect1_foregroundBlur_174_11"/>
</filter>
<radialGradient id="paint0_radial_174_11" cx="0" cy="0" r="1" gradientUnits="userSpaceOnUse" gradientTransform="translate(21.6437 3) rotate(58.8438) scale(65.4389)">
<stop stop-color="#1A72C4"/>
<stop offset="1" stop-color="#353235" stop-opacity="0"/>
</radialGradient>
<radialGradient id="paint1_radial_174_11" cx="0" cy="0" r="1" gradientUnits="userSpaceOnUse" gradientTransform="translate(36.4963 13) rotate(94.6929) scale(33.111)">
<stop offset="0.069345" stop-color="#D69EEA"/>
<stop offset="1" stop-color="#090D76"/>
</radialGradient>
<clipPath id="clip0_174_11">
<rect x="17.2874" y="13" width="33" height="33" rx="16.4179" fill="white"/>
</clipPath>
</defs>
</svg>
