<svg width="221" height="43" viewBox="0 0 221 43" fill="none" xmlns="http://www.w3.org/2000/svg">
<g clip-path="url(#clip0_198_22)">
<rect y="4" width="33" height="33" rx="16.4179" fill="url(#paint0_radial_198_22)"/>
<g filter="url(#filter0_f_198_22)">
<circle cx="7.47015" cy="30.6791" r="7.47015" fill="#6BB1AD"/>
</g>
<g filter="url(#filter1_f_198_22)">
<circle cx="25.5298" cy="9.99237" r="7.47015" fill="#51F9EF"/>
</g>
<g filter="url(#filter2_f_198_22)">
<circle cx="27.8284" cy="29.5297" r="7.47015" fill="#020F0E"/>
</g>
<g filter="url(#filter3_f_198_22)">
<circle cx="9.93286" cy="9.0075" r="7.47015" fill="#0176FF"/>
</g>
</g>
<path d="M52.5556 27.0739C52.7037 32.074 56.7038 35.5185 63.8891 35.5185C70.5559 35.5185 74.9634 32.3703 74.9634 27.5925C74.9634 22.9998 72.4448 20.8516 67.8151 20.1479L62.2594 19.296C60.7779 19.0738 58.852 18.7034 58.852 16.5182C58.852 14.7404 60.6668 13.5552 63.3335 13.5552C66.2225 13.5552 68.1855 14.7774 68.5188 17.2219H74.3708C74.3337 12.407 70.3337 9.11067 63.5558 9.11067C57.2594 9.11067 53.0371 12.2959 53.0371 17.0738C53.0371 21.1109 55.4075 23.5924 60.7779 24.3702L66.0003 25.1109C67.3336 25.2961 68.9633 25.9258 68.9633 28.074C68.9633 29.8888 67.0373 31.111 63.9261 31.111C60.7409 31.111 58.852 29.6666 58.4816 27.0739H52.5556ZM83.4265 34.963L82.2413 38.0371C81.5005 38.1852 80.7598 38.2223 80.0931 38.2223C79.019 38.2223 77.9449 38.1852 76.9078 37.963V42.2594C77.6486 42.5557 78.9449 42.7409 80.1672 42.7409C83.7598 42.7409 86.3895 41.4446 87.7228 38.0001L96.0563 16.296H90.4266L86.3895 28.3703H85.945L81.9079 16.296H76.2412L83.4265 34.963ZM104.723 35V23.6294C105.39 21.8146 107.13 20.6294 108.908 20.6294C110.501 20.6294 111.723 21.5924 111.723 24.222V35H117.093V22.8146C117.093 18.3331 114.464 15.7775 110.649 15.7404C108.093 15.7404 105.871 16.9256 105.056 18.7034H104.723V16.296H99.3524V35H104.723ZM124.431 20.8146V29.5925C124.431 33.4074 126.802 35.4445 131.283 35.4445C132.913 35.4445 134.58 35.1852 135.431 34.7778V30.4444C134.394 30.7777 133.135 30.9629 131.765 30.9629C130.876 30.9629 130.283 30.9259 129.802 30.8147V20.8146H135.802V16.296H129.802V8.25881H124.431V16.296H119.727V20.8146H124.431ZM144.907 35V23.6294C145.574 21.8146 147.315 20.6294 149.093 20.6294C150.685 20.6294 151.907 21.5924 151.907 24.222V35H157.278V22.8146C157.278 18.3331 154.648 15.7775 150.833 15.7404C148.278 15.7404 146.055 16.9256 145.241 18.7034H144.907V8.25881H139.537V35H144.907ZM161.315 25.6295C161.315 31.5925 165.167 35.5556 171.13 35.5556C175.76 35.5556 179.463 32.9629 179.76 29.0369H174.463C174.056 30.2221 172.797 31.037 170.908 31.037C168.389 31.037 166.945 29.4814 166.648 27.0369H179.5C179.649 26.5184 179.76 25.3702 179.76 24.4813C179.76 19.296 176.13 15.8145 170.648 15.8145C164.908 15.8145 161.315 19.9997 161.315 25.6295ZM166.722 23.6294C166.982 21.7776 168.352 20.3701 170.611 20.3701C172.797 20.3701 174.093 21.6664 174.352 23.6294H166.722ZM182.253 29.0369C182.142 33.2592 185.475 35.5556 190.327 35.5556C195.66 35.5556 198.957 33.2592 198.957 29.2221C198.957 26.4443 197.401 24.2591 193.364 23.5924L190.253 23.0739C189.401 22.9257 188.031 22.6665 188.031 21.3331C188.031 20.3701 188.92 19.7034 190.475 19.7034C192.29 19.7034 193.401 20.296 193.438 22.185H198.364C198.549 18.0738 195.623 15.7404 190.364 15.7404C186.031 15.7404 182.438 17.9256 182.438 21.8516C182.438 25.3332 184.845 26.9258 188.438 27.4814L191.105 27.8888C192.586 28.111 193.401 28.7777 193.401 29.7407C193.401 30.8888 192.438 31.5925 190.808 31.5925C188.66 31.5925 187.512 30.6666 187.475 29.0369H182.253ZM219.606 35V30.3333H208.865L219.162 20.5183V16.296H202.051V20.8887H211.94L201.828 30.4814V35H219.606Z" fill="white"/>
<defs>
<filter id="filter0_f_198_22" x="-15.7612" y="7.44779" width="46.4627" height="46.4626" filterUnits="userSpaceOnUse" color-interpolation-filters="sRGB">
<feFlood flood-opacity="0" result="BackgroundImageFix"/>
<feBlend mode="normal" in="SourceGraphic" in2="BackgroundImageFix" result="shape"/>
<feGaussianBlur stdDeviation="7.8806" result="effect1_foregroundBlur_198_22"/>
</filter>
<filter id="filter1_f_198_22" x="2.2985" y="-13.239" width="46.4627" height="46.4626" filterUnits="userSpaceOnUse" color-interpolation-filters="sRGB">
<feFlood flood-opacity="0" result="BackgroundImageFix"/>
<feBlend mode="normal" in="SourceGraphic" in2="BackgroundImageFix" result="shape"/>
<feGaussianBlur stdDeviation="7.8806" result="effect1_foregroundBlur_198_22"/>
</filter>
<filter id="filter2_f_198_22" x="4.59702" y="6.29838" width="46.4627" height="46.4626" filterUnits="userSpaceOnUse" color-interpolation-filters="sRGB">
<feFlood flood-opacity="0" result="BackgroundImageFix"/>
<feBlend mode="normal" in="SourceGraphic" in2="BackgroundImageFix" result="shape"/>
<feGaussianBlur stdDeviation="7.8806" result="effect1_foregroundBlur_198_22"/>
</filter>
<filter id="filter3_f_198_22" x="-13.2985" y="-14.2238" width="46.4627" height="46.4626" filterUnits="userSpaceOnUse" color-interpolation-filters="sRGB">
<feFlood flood-opacity="0" result="BackgroundImageFix"/>
<feBlend mode="normal" in="SourceGraphic" in2="BackgroundImageFix" result="shape"/>
<feGaussianBlur stdDeviation="7.8806" result="effect1_foregroundBlur_198_22"/>
</filter>
<radialGradient id="paint0_radial_198_22" cx="0" cy="0" r="1" gradientUnits="userSpaceOnUse" gradientTransform="translate(19.209 4) rotate(94.6929) scale(33.111)">
<stop offset="0.069345" stop-color="#D69EEA"/>
<stop offset="1" stop-color="#090D76"/>
</radialGradient>
<clipPath id="clip0_198_22">
<rect y="4" width="33" height="33" rx="16.4179" fill="white"/>
</clipPath>
</defs>
</svg>
